<svg xmlns="http://www.w3.org/2000/svg" width="400" height="400" viewBox="0 0 400 400" version="1.1"><path d="M 192.131 299.478 L 184.845 311.957 192.262 324.524 C 197.806 333.917, 199.937 336.764, 200.699 335.796 C 201.260 335.083, 204.710 329.426, 208.367 323.225 L 215.015 311.949 207.758 299.492 C 203.766 292.641, 200.256 287.027, 199.959 287.017 C 199.661 287.008, 196.139 292.615, 192.131 299.478" stroke="none" fill="#f9d104" fill-rule="evenodd"/><path d="M 171.157 148.750 C 155.648 208.013, 142.968 257.035, 142.979 257.688 C 142.991 258.342, 147.433 267.243, 152.852 277.469 C 160.002 290.962, 162.973 295.711, 163.686 294.781 C 164.226 294.076, 172.469 280.113, 182.002 263.750 C 191.536 247.388, 199.599 234, 199.919 234 C 200.239 234, 208.600 247.918, 218.500 264.929 C 234.245 291.984, 236.663 295.648, 237.805 294.179 C 238.523 293.256, 243.192 284.685, 248.182 275.133 L 257.253 257.766 228.876 149.388 C 213.269 89.780, 200.242 41.008, 199.928 41.005 C 199.613 41.002, 186.666 89.487, 171.157 148.750 M 60.069 106.750 C 70.214 155.790, 103.150 311.483, 103.440 311.774 C 104.015 312.348, 104.238 311.462, 114.905 266.185 L 124.874 223.870 92.187 160.972 C 74.209 126.378, 59.221 98.057, 58.879 98.037 C 58.538 98.017, 59.073 101.938, 60.069 106.750 M 307.725 160.945 L 274.950 223.861 285.017 266.681 C 290.554 290.231, 295.360 310.175, 295.697 311 C 296.241 312.333, 296.353 312.333, 296.705 311 C 298.707 303.400, 341.481 98.003, 341.059 98.014 C 340.752 98.021, 325.751 126.340, 307.725 160.945 M 119.033 130.825 L 119 149.150 129.250 161.249 L 139.500 173.348 139.775 157.125 L 140.050 140.903 131.641 129.202 C 127.017 122.766, 122.295 116.375, 121.150 115 L 119.067 112.500 119.033 130.825 M 275.345 119.500 C 272.509 123.350, 267.897 129.640, 265.095 133.479 L 260 140.457 260 156.951 C 260 173.022, 260.047 173.394, 261.843 171.472 C 262.856 170.387, 267.591 164.904, 272.365 159.287 L 281.045 149.075 280.773 130.787 L 280.500 112.500 275.345 119.500 M 1.624 197.173 C 8.626 208.736, 73.436 302.938, 73.973 302.333 C 74.380 301.875, 75.243 293.850, 75.891 284.500 C 76.539 275.150, 77.330 264.791, 77.649 261.480 L 78.229 255.460 40.865 226.419 C 1.225 195.609, 0.225 194.864, 1.624 197.173 M 360.927 225.083 C 340.342 241.079, 323.144 254.508, 322.708 254.925 C 321.847 255.750, 324.738 299.464, 325.831 302.137 C 326.306 303.300, 336.621 288.777, 361.500 251.912 C 380.750 223.389, 397.117 199.140, 397.872 198.026 C 398.627 196.912, 399.044 196, 398.799 196 C 398.554 196, 381.512 209.088, 360.927 225.083 M 186 287.336 C 178.575 300.060, 172.388 310.927, 172.250 311.485 C 172.113 312.043, 178.256 323.025, 185.900 335.888 L 199.800 359.277 202.240 355.388 C 203.582 353.250, 209.960 342.606, 216.412 331.735 L 228.144 311.971 214.450 288.469 C 206.918 275.543, 200.473 264.795, 200.128 264.584 C 199.783 264.374, 193.425 274.612, 186 287.336 M 192.131 299.478 L 184.845 311.957 192.262 324.524 C 197.806 333.917, 199.937 336.764, 200.699 335.796 C 201.260 335.083, 204.710 329.426, 208.367 323.225 L 215.015 311.949 207.758 299.492 C 203.766 292.641, 200.256 287.027, 199.959 287.017 C 199.661 287.008, 196.139 292.615, 192.131 299.478" stroke="none" fill="#2c1443" fill-rule="evenodd"/></svg>